<svg width="359" height="180" viewBox="0 0 359 180" fill="none" xmlns="http://www.w3.org/2000/svg">
<g clip-path="url(#clip0_3519_12)">
<path d="M271.6 0C251.6 0 229.7 10.9 206.6 32.4C195.7 42.5 186.1 53.5 179.1 62.2C179.1 62.2 190.3 75.1 202.6 89C209.3 80.6 218.8 69.2 229.9 58.9C250.4 39.7 263.8 35.8 271.5 35.8C300.3 35.8 323.7 60 323.7 89.9C323.7 119.5 300.3 143.7 271.5 144C270.1 144 268.5 143.8 266.5 143.4C274.9 147.3 284 150.1 292.5 150.1C345.3 150.1 355.7 113.6 356.3 111C357.8 104.3 358.7 97.3 358.7 90.1C358.6 40.4 319.6 0 271.6 0Z" fill="black"/>
<path d="M87.1 179.8C107.1 179.8 129 168.9 152.1 147.4C163 137.3 172.6 126.3 179.6 117.6C179.6 117.6 168.4 104.7 156.1 90.8C149.4 99.2 139.9 110.6 128.8 120.9C108.3 139.9 94.8 144 87.2 144C58.4 144 35 119.8 35 89.9C35 60.3 58.4 36.1 87.2 35.8C88.6 35.8 90.2 36 92.2 36.4C83.8 32.5 74.7 29.7 66.2 29.7C13.4 29.6 3 66.1 2.4 68.8C0.9 75.5 0 82.5 0 89.7C0 139.4 39 179.8 87.1 179.8Z" fill="black"/>
<path fill-rule="evenodd" clip-rule="evenodd" d="M127.3 59.7C121.5 54.1 93.3 31.2 66.3 30.4C18.1 29.2 3.99995 64.2 2.69995 68.7C12 29.5 46.4 0.2 87.2 0C120.5 0 154.2 32.7 179.1 62.2L179.2 62.1C179.2 62.1 190.4 75 202.7 88.9C202.7 88.9 216.7 105.4 231.5 119.9C237.3 125.5 265.4 148.1 292.4 148.9C341.9 150.3 355.6 113.3 356.3 110.5C347.2 150 312.7 179.4 271.7 179.6C238.4 179.6 204.7 146.9 179.7 117.4C179.7 117.5 179.6 117.5 179.6 117.6C179.6 117.6 168.4 104.7 156.1 90.8C156.2 90.8 142.2 74.2 127.3 59.7Z" fill="#252525"/>
</g>
<defs>
<clipPath id="clip0_3519_12">
<rect width="358.8" height="179.8" fill="white"/>
</clipPath>
</defs>
</svg>
