<svg width="289" height="300" viewBox="0 0 289 300" fill="none" xmlns="http://www.w3.org/2000/svg">
<path d="M104.738 171.869C97.8099 174.853 91.024 177.734 84.2844 180.72C82.5669 181.481 81.115 181.439 79.3732 180.676C55.0544 170.029 30.7034 159.455 6.36176 148.859C6.02319 148.712 5.70499 148.517 4.96448 148.128C6.65889 147.24 8.04503 146.448 9.48386 145.768C30.1574 135.994 50.9508 126.464 71.4522 116.342C78.1054 113.058 84.5578 111.731 91.9278 112.142C109.354 113.112 126.819 113.369 144.261 114.092C146.743 114.195 149.216 115.188 151.64 115.941C166.721 120.63 181.786 125.367 196.855 130.093C197.71 130.361 198.55 130.678 200.104 131.218C167.981 144.912 136.44 158.359 104.738 171.869Z" fill="#FFCC00"/>
<path d="M131.208 244.014C110.037 250.418 89.0299 256.763 67.5777 263.243C67.876 262.304 68.0026 261.694 68.2551 261.141C77.0347 241.919 85.8162 222.698 94.6474 203.5C95.0619 202.599 95.8216 201.767 96.6101 201.142C109.223 191.139 121.773 181.053 134.57 171.291C137.669 168.926 141.528 167.48 145.168 165.916C155.943 161.285 166.784 156.806 177.601 152.273C177.87 152.161 178.166 152.114 178.845 151.929C178.527 152.759 178.357 153.343 178.089 153.879C163.509 182.988 148.936 212.1 134.282 241.171C133.712 242.301 132.36 243.037 131.208 244.014Z" fill="#FFCC00"/>
<path d="M162.936 280.538C160.035 269.989 157.161 259.623 154.336 249.244C154.109 248.409 154.039 247.444 154.207 246.601C156.713 234.059 159.036 221.473 161.952 209.026C162.889 205.027 165.372 201.377 167.239 197.612C170.713 190.608 174.251 183.636 177.772 176.655C177.962 176.278 178.241 175.946 178.805 175.109C179.788 179.29 180.661 182.983 181.524 186.679C186.621 208.511 191.676 230.353 196.875 252.161C197.397 254.347 197.169 256.02 195.967 257.826C188.01 269.785 180.102 281.777 172.187 293.763C170.96 295.621 169.775 297.506 168.171 300C166.317 293.121 164.647 286.92 162.936 280.538Z" fill="#FFCC00"/>
<path d="M251.583 109.025C243.196 112.565 234.982 116.055 226.57 119.629C220.014 101.863 213.491 84.1844 206.831 66.1351C209.348 65.9909 211.638 65.7676 213.929 65.7468C219.493 65.6962 225.066 65.5693 230.621 65.7961C235.621 66.0002 240.342 67.6435 244.181 70.8295C251.168 76.6298 257.888 82.7531 264.719 88.7416C264.602 88.9513 264.485 89.1609 264.368 89.3706C256.142 86.8359 247.915 84.3012 239.619 81.745C239.924 85.1116 241.805 87.6044 244.636 88.4838C252.395 90.8933 260.141 93.346 267.93 95.654C272.228 96.9276 275.392 99.4565 277.448 103.392C279.043 106.447 280.574 109.535 282.406 113.145C278.24 111.853 274.607 110.76 270.996 109.599C264.637 107.553 258.256 106.533 251.583 109.025Z" fill="#FFCC00"/>
<path d="M221.648 211.389C228.786 216.796 235.84 222.05 242.775 227.456C243.835 228.282 244.874 229.745 245.033 231.024C246.638 243.93 248.06 256.859 249.523 269.782C249.578 270.267 249.53 270.764 249.53 271.638C245.478 268.836 241.673 266.205 237.87 263.573C230.764 258.653 223.616 253.79 216.586 248.763C215.126 247.719 213.799 246.235 212.927 244.667C208.509 236.725 204.102 228.767 200.036 220.642C198.484 217.542 197.661 214.027 196.843 210.62C195.196 203.77 193.781 196.864 192.271 189.981C192.431 189.847 192.592 189.714 192.752 189.581C202.343 196.816 211.934 204.051 221.648 211.389Z" fill="#FFCC00"/>
<path d="M236.359 209.7C233.535 208.604 230.82 207.693 228.228 206.509C226.27 205.615 224.354 204.532 222.624 203.257C218.024 199.868 213.533 196.332 209.006 192.846C208.444 192.413 207.928 191.921 206.929 191.057C208.911 190.952 210.297 190.881 211.683 190.805C226.928 189.974 242.175 189.164 257.417 188.278C259.07 188.182 260.205 188.682 261.388 189.81C268.246 196.349 275.172 202.817 282.112 209.269C282.979 210.075 284.069 210.641 285.056 211.319C284.845 211.611 284.633 211.904 284.422 212.196C280.852 212.539 277.284 212.9 273.712 213.222C266.372 213.882 259.032 214.541 251.686 215.143C250.834 215.213 249.891 215.072 249.092 214.764C244.884 213.146 240.708 211.442 236.359 209.7Z" fill="#FFCC00"/>
<path d="M236.891 182.897C230.628 183.165 224.574 183.415 217.9 183.691C219.95 181.775 221.551 180.252 223.181 178.761C231.175 171.446 239.195 164.16 247.158 156.812C248.54 155.537 249.983 154.851 251.889 154.581C263.212 152.975 274.513 151.212 285.823 149.51C286.395 149.424 286.977 149.404 288.097 149.307C287.24 150.41 286.72 151.19 286.092 151.87C279.61 158.89 273.155 165.935 266.575 172.86C265.453 174.04 263.879 174.983 262.334 175.533C256.314 177.678 250.248 179.708 244.141 181.591C241.876 182.289 239.451 182.465 236.891 182.897Z" fill="#FFCC00"/>
<path d="M103.379 10.386C103.871 10.3901 104.364 10.3941 105.101 10.6015C106.348 10.8093 107.352 10.8137 108.355 10.8181C108.846 10.8303 109.337 10.8426 110.077 11.0601C111.468 11.2854 112.611 11.3054 113.755 11.3254C113.968 11.3107 114.181 11.2961 114.621 11.4933C117.197 11.8708 119.547 12.0366 121.896 12.2024C122.552 12.2231 123.208 12.2437 124.136 12.4713C128.809 13.0036 133.21 13.3289 137.611 13.6542C137.759 13.6689 137.907 13.6837 138.151 13.9373C138.572 14.347 138.897 14.5178 139.222 14.6886C149.524 23.923 159.819 33.1663 170.132 42.3889C177.531 49.0061 184.967 55.582 192.35 62.2182C193.105 62.8975 193.813 63.78 194.188 64.7112C201.626 83.1956 209.013 101.701 216.405 120.204C216.592 120.673 216.716 121.168 217.013 122.099C213.975 121.248 211.245 120.554 208.559 119.72C190.389 114.08 172.232 108.402 154.065 102.753C130.797 95.5177 107.521 88.3088 84.2629 81.04C83.166 80.6972 82.0509 80.0558 81.2223 79.2628C54.1612 53.3661 27.1342 27.4337 0.0405559 1.22107C-0.0114974 0.623854 -0.00204079 0.31215 0.00741593 0.000449553C0.201486 -0.00161164 0.395542 -0.00367194 0.755464 0.167566C1.21008 0.325653 1.49884 0.310444 1.7876 0.295232C2.2682 0.316065 2.74878 0.336898 3.4521 0.563377C4.55072 0.763875 5.42661 0.758726 6.30252 0.753577C6.9281 0.781155 7.55369 0.808739 8.37337 1.05792C9.32996 2.43159 10.0799 2.48424 10.8152 1.25388C11.1554 1.26842 11.4955 1.28294 12.0008 1.52764C13.338 3.42329 14.1528 5.84264 15.7545 6.60188C19.4155 8.33731 23.0683 6.84832 26.2398 4.81008C28.2834 6.62704 28.4216 7.75844 26.6946 9.43263C25.8042 10.2957 24.5964 10.8309 23.5339 11.5171C22.8991 11.9271 22.2678 12.3426 21.4676 12.8649C22.9939 14.2955 24.1009 15.7222 26.1529 14.9525C30.0856 13.4772 32.9377 8.98601 32.6991 4.55076C30.7029 4.29759 28.6814 4.0412 26.4982 3.76432C27.2598 3.47613 27.8484 3.25337 28.6161 3.0025C29.2714 3.04454 29.7477 3.11469 30.279 3.33626C31.3562 3.4835 32.3783 3.47931 33.4003 3.47511C33.8839 3.48539 34.3676 3.49568 35.0841 3.73129C36.755 4.11966 38.4001 3.89942 39.5815 4.53759C41.2587 5.44358 42.6466 5.1807 44.1823 4.57717C44.3965 4.56672 44.6106 4.55628 45.0448 4.73709C46.1194 4.93001 46.974 4.93167 47.8285 4.93334C48.1749 4.9437 48.5214 4.95406 49.0952 5.1644C50.1815 5.36533 51.0405 5.36628 51.8995 5.36724C52.1055 5.3581 52.3114 5.34897 52.7206 5.5457C54.086 5.78056 55.2482 5.80955 56.4103 5.83855C56.9001 5.85001 57.3898 5.86146 58.1216 6.07564C59.3678 6.2864 60.3719 6.29445 61.3759 6.3025C61.7234 6.3028 62.0709 6.30311 62.6495 6.51138C64.0351 6.73101 65.1896 6.74267 66.3441 6.75433C66.8356 6.7744 67.327 6.79446 68.0689 7.01387C69.3188 7.20674 70.3183 7.20026 71.3178 7.19377C71.6629 7.19833 72.0081 7.20288 72.5846 7.40935C73.9732 7.62079 75.1305 7.63031 76.2877 7.63984C76.4943 7.62246 76.701 7.60508 77.113 7.79353C78.6265 8.04283 79.9345 8.0863 81.2426 8.12978C81.5925 8.1218 81.9425 8.11382 82.5292 8.32066C82.9603 8.63793 83.1468 8.80982 83.3499 8.83259C87.5206 9.30003 91.6869 9.82348 95.8676 10.1768C98.3593 10.3874 100.874 10.3255 103.379 10.386ZM161.14 61.2123C159.81 60.5296 158.481 59.8446 157.149 59.1648C153.835 57.4731 150.558 55.7004 147.176 54.1586C146.437 53.8219 144.993 53.9711 144.449 54.4946C143.361 55.5406 141.156 56.3371 142.033 58.3713C144.521 64.1381 147.19 69.8286 149.894 75.4981C150.208 76.1557 151.555 77.0422 151.803 76.8794C152.68 76.3019 153.62 75.4109 153.894 74.4546C154.117 73.6744 153.409 72.6354 153.141 71.7032C152.98 71.1399 152.564 70.2793 152.788 70.0354C154.246 68.4495 155.705 66.7801 157.477 65.6135C158.121 65.1895 159.672 65.9499 160.722 66.3813C162.27 67.0172 164.696 66.161 165.471 64.3973C166.39 62.3057 164.064 62.7693 163.337 61.975C162.949 61.5505 162.096 61.5506 161.14 61.2123ZM163.953 38.4554C163.147 37.7912 162.247 37.2113 161.557 36.4431C160.501 35.2683 159.366 35.5364 158.777 36.5678C158.359 37.2983 158.55 38.5594 158.848 39.4573C159.084 40.1652 159.845 40.7441 160.467 41.2678C161.741 42.3395 161.889 43.1745 160.653 44.5773C158.909 46.5573 157.684 48.9462 158.096 51.7615C159.004 57.9813 164.067 62.6862 170.569 59.3263C172.637 58.2582 174.105 55.976 175.748 54.1598C177.08 52.6876 176.768 51.3325 175.173 50.1782C174.522 49.7073 173.915 49.1385 173.403 48.5194C171.995 46.8182 170.753 44.968 169.248 43.3624C167.68 41.69 165.88 40.2343 163.953 38.4554Z" fill="#FFCC00"/>
<path d="M28.4371 3.03065C27.8484 3.25341 27.2598 3.47617 26.4982 3.76436C28.6814 4.04124 30.7029 4.29762 32.6991 4.55079C32.9377 8.98605 30.0856 13.4772 26.1529 14.9525C24.1009 15.7223 22.9939 14.2955 21.4676 12.8649C22.2678 12.3426 22.899 11.9271 23.5339 11.5171C24.5964 10.8309 25.8042 10.2958 26.6945 9.43267C28.4216 7.75848 28.2834 6.62708 26.2398 4.81012C23.0683 6.84836 19.4155 8.33734 15.7545 6.60192C14.1528 5.84268 13.338 3.42333 12.1526 1.60819C12.8173 1.45438 13.4952 1.45021 14.2208 1.66886C14.0069 2.04725 13.7455 2.20281 13.7673 2.18983C14.9699 2.75347 16.2086 3.33405 16.8552 3.63712C19.364 3.63712 21.391 3.63712 23.9985 3.63712C22.8083 2.96729 22.2282 2.64079 21.8349 2.26149C24.1602 2.48268 26.2986 2.75666 28.4371 3.03065Z" fill="#FFCC00"/>
<path d="M103.235 10.2822C100.874 10.3254 98.3593 10.3874 95.8676 10.1768C91.6869 9.82345 87.5206 9.3 83.3499 8.83256C83.1468 8.80978 82.9603 8.63789 82.6919 8.38879C87.6621 8.69563 92.7072 9.14103 97.7503 9.60696C99.5328 9.77165 101.311 9.98647 103.235 10.2822Z" fill="#FFCC00"/>
<path d="M137.473 13.5406C133.21 13.3289 128.809 13.0036 124.291 12.5291C128.561 12.7289 132.947 13.078 137.473 13.5406Z" fill="#FFCC00"/>
<path d="M15.6255 1.52087C16.269 1.55448 16.7492 1.64589 17.4543 1.94265C18.4017 2.14308 19.1242 2.13815 19.8468 2.13323C20.3309 2.15696 20.8149 2.18069 21.4735 2.25935C22.2282 2.64077 22.8083 2.96727 23.9985 3.6371C21.391 3.6371 19.364 3.6371 16.8553 3.6371C16.2086 3.33403 14.9699 2.75345 13.7673 2.18981C13.7455 2.20279 14.007 2.04723 14.3486 1.77845C14.7732 1.63638 15.1177 1.60753 15.6255 1.52087Z" fill="#FFCC00"/>
<path d="M44.0478 4.46218C42.6466 5.18071 41.2586 5.44359 39.5815 4.5376C38.4 3.89943 36.7549 4.11967 35.2552 3.79639C38.1001 3.87315 41.0067 4.11016 44.0478 4.46218Z" fill="#FFCC00"/>
<path d="M121.758 12.0986C119.547 12.0366 117.197 11.8708 114.769 11.5593C117 11.6073 119.31 11.801 121.758 12.0986Z" fill="#FFCC00"/>
<path d="M81.1059 8.01851C79.9346 8.08627 78.6265 8.0428 77.2616 7.84355C78.4595 7.76095 79.7143 7.83411 81.1059 8.01851Z" fill="#FFCC00"/>
<path d="M56.2646 5.74232C55.2482 5.8096 54.086 5.78061 52.8668 5.59974C53.9129 5.51393 55.0159 5.57999 56.2646 5.74232Z" fill="#FFCC00"/>
<path d="M66.2 6.65597C65.1896 6.74273 64.0351 6.73107 62.8114 6.57795C63.8467 6.47684 64.9514 6.5172 66.2 6.65597Z" fill="#FFCC00"/>
<path d="M76.1405 7.54573C75.1305 7.63034 73.9732 7.62082 72.7483 7.46775C73.7849 7.36667 74.8891 7.40914 76.1405 7.54573Z" fill="#FFCC00"/>
<path d="M113.619 11.2173C112.611 11.3053 111.468 11.2853 110.248 11.1309C111.275 11.034 112.379 11.0716 113.619 11.2173Z" fill="#FFCC00"/>
<path d="M71.1696 7.10674C70.3184 7.20027 69.3188 7.20675 68.2403 7.08518C69.1146 6.97799 70.0679 6.99885 71.1696 7.10674Z" fill="#FFCC00"/>
<path d="M61.2331 6.20605C60.3719 6.29444 59.3678 6.28639 58.2938 6.14264C59.1794 6.04117 60.1348 6.0754 61.2331 6.20605Z" fill="#FFCC00"/>
<path d="M108.212 10.7218C107.352 10.8137 106.348 10.8093 105.274 10.6704C106.158 10.5658 107.113 10.5957 108.212 10.7218Z" fill="#FFCC00"/>
<path d="M30.2791 3.33624C31.1047 3.1744 31.9855 3.16398 33.0489 3.11772C33.2315 3.08188 33.3459 3.2656 33.3731 3.37035C32.3783 3.47929 31.3562 3.48348 30.2791 3.33624Z" fill="#FFCC00"/>
<path d="M51.7576 5.27395C51.0405 5.36633 50.1816 5.36538 49.2562 5.23177C49.9985 5.12628 50.8071 5.15345 51.7576 5.27395Z" fill="#FFCC00"/>
<path d="M47.6878 4.83883C46.974 4.93169 46.1194 4.93003 45.1945 4.79996C45.9318 4.6958 46.7395 4.72005 47.6878 4.83883Z" fill="#FFCC00"/>
<path d="M139.178 14.5555C138.897 14.5178 138.572 14.347 138.225 14.0267C138.513 14.059 138.823 14.2408 139.178 14.5555Z" fill="#FFCC00"/>
<path d="M19.7198 2.02438C19.1242 2.13811 18.4017 2.14304 17.6259 2.01011C18.2459 1.8867 18.9193 1.90114 19.7198 2.02438Z" fill="#FFCC00"/>
<rect x="154.967" y="30.256" width="39" height="43.4199" transform="rotate(40.7388 154.967 30.256)" fill="#FFCC00"/>
</svg>
